<svg width="16" height="12" viewBox="0 0 16 12" fill="none" xmlns="http://www.w3.org/2000/svg">
<path d="M14.5236 0.000742212C14.1525 0.0130007 13.8004 0.170131 13.543 0.437572C10.7804 3.20684 8.25948 5.93046 5.59064 8.64838L2.31869 6.03625C2.02337 5.79999 1.64559 5.69079 1.27004 5.73202C0.893379 5.77436 0.549039 5.96381 0.312766 6.25914C-0.179809 6.87541 -0.0795021 7.77249 0.535645 8.26504L4.81493 11.6885C5.38328 12.142 6.20014 12.0952 6.71385 11.5815C9.78638 8.5024 12.5445 5.47238 15.5577 2.45234C15.9812 2.04336 16.1093 1.41485 15.8809 0.872119C15.6513 0.32942 15.1131 -0.0171736 14.5235 0.000656782L14.5236 0.000742212Z" fill="url(#paint0_linear_59_765)"/>
<defs>
<linearGradient id="paint0_linear_59_765" x1="0" y1="0" x2="17.688" y2="8.45253" gradientUnits="userSpaceOnUse">
<stop stop-color="#65CB9A"/>
<stop offset="1" stop-color="#15D0DC"/>
</linearGradient>
</defs>
</svg>
