<svg width="23" height="21" viewBox="0 0 23 21" fill="none" xmlns="http://www.w3.org/2000/svg">
<path d="M12.1097 2.72438L12.1095 2.7246C11.9482 2.88865 11.795 3.06211 11.6489 3.24884C10.3353 1.57909 8.19637 0.731114 6.08129 1.11724C4.29146 1.44222 2.88271 2.42695 1.90303 4.03746C0.52336 6.3028 0.404701 8.50223 1.57213 10.5609C2.18881 11.6502 2.98909 12.7103 4.01508 13.8024L4.01514 13.8025C5.89369 15.7986 8.11415 17.6919 11.0047 19.7572L11.0048 19.7572C11.2044 19.8996 11.4219 19.975 11.6508 19.975C11.9993 19.975 12.2365 19.7988 12.3452 19.7181L12.3466 19.717C12.3469 19.7168 12.3471 19.7166 12.3474 19.7165C14.9545 17.854 17.0057 16.1364 18.7981 14.3083C19.7989 13.2881 20.9397 12.0301 21.7755 10.454C22.1323 9.78236 22.5477 8.86532 22.5229 7.81206V7.81201C22.4692 5.57639 21.5794 3.72752 19.8812 2.32408C18.8716 1.48795 17.5735 1.0289 16.2305 1.0289C14.6801 1.0289 13.1764 1.64627 12.1097 2.72438ZM20.2417 9.64081L20.2416 9.64087C19.5114 11.017 18.4775 12.1539 17.5583 13.0923C15.9218 14.7605 14.0527 16.34 11.6475 18.0814C9.02753 16.1825 6.99734 14.4368 5.28051 12.6102L5.2805 12.6102C4.34824 11.6187 3.62895 10.6693 3.08275 9.7027L3.08267 9.70255C2.65412 8.94707 2.46596 8.19438 2.51519 7.41472C2.5645 6.63387 2.8524 5.81861 3.38789 4.93991L3.38794 4.93982C4.10161 3.7661 5.11224 3.05645 6.39492 2.82411L6.39537 2.82402C6.63973 2.7786 6.88902 2.75663 7.13368 2.75663C8.6486 2.75663 9.99255 3.59279 10.7541 5.05297L10.7544 5.05349L10.8861 5.30248L10.8862 5.30266C11.0407 5.59335 11.3563 5.75319 11.6623 5.76208L11.6623 5.76219L11.6669 5.76211C11.9936 5.75666 12.2879 5.56958 12.4313 5.27555C12.7005 4.72603 12.9918 4.30337 13.3459 3.94456C14.0878 3.19483 15.1397 2.76463 16.2321 2.76463C17.1736 2.76463 18.0761 3.08318 18.7754 3.66212L18.7755 3.6622C20.0891 4.74684 20.7447 6.11525 20.7874 7.85241C20.8011 8.49111 20.5252 9.10731 20.2417 9.64081Z" fill="white" stroke="white" stroke-width="0.2"/>
</svg>
